<svg id="Layer_1" data-name="Layer 1" xmlns="http://www.w3.org/2000/svg" width="27" height="27" viewBox="0 0 27 27"><defs><style>.cls-1{fill:#666;}</style></defs><title>icon-print-grey</title><path class="cls-1" d="M19.69,12.55a0.9,0.9,0,0,1-.91.92,0.92,0.92,0,0,1-.92-0.92,1,1,0,0,1,.9-0.92A0.92,0.92,0,0,1,19.69,12.55ZM9.28,10.37h8.27c0.24,0,.25,0,0.25-0.21,0-1,0-2,0-2.94a0.46,0.46,0,0,0-.12-0.32,0.71,0.71,0,0,0-.58-0.26c-2.41,0-4.82,0-7.23,0a0.61,0.61,0,0,0-.71.7c0,0.89,0,1.79,0,2.68,0,0.05,0,.11,0,0.16A0.12,0.12,0,0,0,9.28,10.37Zm8.52,4.51c0,0.06,0,.13,0,0.19q0,2.29,0,4.58a0.58,0.58,0,0,1-.64.64H9.84a0.62,0.62,0,0,1-.68-0.68q0-2.26,0-4.52c0-.06,0-0.13,0-0.19a0.14,0.14,0,0,1,.16-0.17h8.34A0.13,0.13,0,0,1,17.8,14.89Zm-3.07,4q0-.47,0-0.95a0.14,0.14,0,0,0-.16-0.15H10.72a0.56,0.56,0,0,0-.31,0c0,0.35,0,.7,0,1a0.13,0.13,0,0,0,.15.15h4A0.14,0.14,0,0,0,14.74,18.93ZM16.59,16h-6a0.13,0.13,0,0,0-.14.16c0,0.33,0,.67,0,1a0.35,0.35,0,0,0,.22,0h5.85a0.11,0.11,0,0,0,.11-0.12C16.59,16.72,16.59,16.36,16.59,16ZM27,13.5A13.5,13.5,0,1,1,13.5,0,13.5,13.5,0,0,1,27,13.5Zm-5.41-1.42a0.12,0.12,0,0,1-.06-0.13,1.82,1.82,0,0,0-1.74-1.53H19.24a0.15,0.15,0,0,1-.17-0.17c0-.11,0-0.23,0-0.35,0-.88,0-1.77,0-2.65a1.82,1.82,0,0,0-1.79-1.79q-3.8,0-7.61,0a1.8,1.8,0,0,0-1.72,1.7c0,1-.06,2,0,3,0,0.27,0,.27-0.28.28H7.29A1.79,1.79,0,0,0,5.47,12a0.11,0.11,0,0,1-.06.1v4.23a0.39,0.39,0,0,1,.16.26,1.89,1.89,0,0,0,1.83,1.2c0.48,0,.49,0,0.48.48s0,1.07.05,1.61a1.71,1.71,0,0,0,.9,1.36c0.17,0.11.37,0.18,0.55,0.27h8.21a0.48,0.48,0,0,1,.27-0.13A2,2,0,0,0,19,20.24a1.32,1.32,0,0,0,.07-0.46q0-.85,0-1.7c0-.23,0-0.23.25-0.24a3.68,3.68,0,0,0,.78-0.05,1.84,1.84,0,0,0,1.3-1.05,0.73,0.73,0,0,1,.19-0.35v-4.3h0Z"/></svg>